<svg xmlns="http://www.w3.org/2000/svg" width="92.467" height="92.467" viewBox="0 0 92.467 92.467">
  <g id="Ecommerce_Development" data-name="Ecommerce Development" transform="translate(-475 -250.533)">
    <rect id="Rectangle_1154" data-name="Rectangle 1154" width="92" height="12" rx="6" transform="translate(475 310)" fill="#bce0fd"/>
    <g id="_088---Online-Shopping" data-name="088---Online-Shopping" transform="translate(475 250.533)">
      <path id="Shape" d="M86.3,0H6.164A6.164,6.164,0,0,0,0,6.164v60.1a6.164,6.164,0,0,0,6.164,6.164h26.2v4.623H28.511A3.064,3.064,0,0,0,25.522,79.4l-2.312,9.247A3.082,3.082,0,0,0,26.2,92.467H66.268a3.082,3.082,0,0,0,2.988-3.825L66.944,79.4a3.068,3.068,0,0,0-2.988-2.347H60.1V72.432H86.3a6.164,6.164,0,0,0,6.164-6.164V6.164A6.164,6.164,0,0,0,86.3,0ZM3.082,6.164A3.082,3.082,0,0,1,6.164,3.082H86.3a3.082,3.082,0,0,1,3.082,3.082V57.021H3.082ZM63.956,80.138l2.312,9.247H26.2l2.312-9.247h3.853V83.22A3.082,3.082,0,0,0,35.446,86.3H57.021A3.082,3.082,0,0,0,60.1,83.22V80.138ZM57.021,83.22H35.446V72.432H57.021ZM89.385,66.268A3.082,3.082,0,0,1,86.3,69.35H6.164a3.082,3.082,0,0,1-3.082-3.082V60.1h86.3Z" fill="#4640de"/>
      <path id="Shape-2" data-name="Shape" d="M28.541,44.082h6.164a1.541,1.541,0,1,0,0-3.082H28.541a1.541,1.541,0,1,0,0,3.082Z" transform="translate(14.61 22.186)" fill="#4640de"/>
      <path id="Shape-3" data-name="Shape" d="M33.738,29.729l2.45,13.477A4.623,4.623,0,0,0,40.737,47H60.25a4.623,4.623,0,0,0,4.548-3.8l2.45-13.477a3.082,3.082,0,0,0,1.738-2.76V23.887A3.082,3.082,0,0,0,65.9,20.8h-2.29L56.371,10.663a1.541,1.541,0,1,0-2.506,1.791L59.828,20.8H41.159l5.964-8.351a1.541,1.541,0,0,0-2.506-1.791L37.372,20.8h-2.29A3.082,3.082,0,0,0,32,23.887v3.082a3.082,3.082,0,0,0,1.738,2.76Zm30.317.322-1.122,6.164H57.643l.448-6.164ZM54.55,36.216H46.434l-.448-6.164H55ZM42.9,30.051l.448,6.164h-5.3l-1.117-6.164Zm-3.676,12.6L38.61,39.3h4.959l.336,4.623H40.737a1.541,1.541,0,0,1-1.516-1.265Zm7.773,1.265L46.658,39.3h7.672l-.336,4.623Zm13.254,0H57.082l.336-4.623h4.959l-.616,3.358a1.541,1.541,0,0,1-1.51,1.265ZM35.082,23.887H65.9v3.082H35.082Z" transform="translate(17.316 5.394)" fill="#4640de"/>
      <path id="Shape-4" data-name="Shape" d="M5.317,23.958c6.883,6.884,5.9,5.9,6.164,6.148V46.987a1.541,1.541,0,0,0,1.541,1.541H34.6a1.541,1.541,0,0,0,1.541-1.541V30.105c.3-.276-.647.661,6.164-6.148a3.059,3.059,0,0,0,.1-4.263l-6.656-8.026A4.6,4.6,0,0,0,32.178,10H15.442a4.6,4.6,0,0,0-3.558,1.666L5.317,19.592a3.093,3.093,0,0,0,0,4.366Zm12.7-10.876H29.6C27.643,17.154,20,17.2,18.019,13.082Zm-3.236.142c1,3.759,4.987,6.023,9.028,6.023a11.1,11.1,0,0,0,4.039-.771,1.57,1.57,0,0,0,.4-.177,7.972,7.972,0,0,0,4.588-5.086c.433.2,0-.23,7.283,8.555l-3.981,3.991V24.641a1.541,1.541,0,1,0-3.082,0V45.446H14.563V24.641a1.541,1.541,0,0,0-3.082,0v1.045L7.6,21.663c7.243-8.735,6.753-8.239,7.188-8.439Z" transform="translate(2.389 5.411)" fill="#4640de"/>
      <path id="Shape-5" data-name="Shape" d="M5.541,7.082H8.623A1.541,1.541,0,0,0,8.623,4H5.541a1.541,1.541,0,1,0,0,3.082Z" transform="translate(2.164 2.164)" fill="#4640de"/>
      <path id="Shape-6" data-name="Shape" d="M11.541,7.082h3.082a1.541,1.541,0,1,0,0-3.082H11.541a1.541,1.541,0,0,0,0,3.082Z" transform="translate(5.411 2.164)" fill="#4640de"/>
      <path id="Shape-7" data-name="Shape" d="M17.541,7.082h3.082a1.541,1.541,0,0,0,0-3.082H17.541a1.541,1.541,0,0,0,0,3.082Z" transform="translate(8.658 2.164)" fill="#4640de"/>
      <path id="Shape-8" data-name="Shape" d="M53.541,7.082h3.082a1.541,1.541,0,1,0,0-3.082H53.541a1.541,1.541,0,1,0,0,3.082Z" transform="translate(28.138 2.164)" fill="#4640de"/>
    </g>
  </g>
</svg>
