<svg xmlns="http://www.w3.org/2000/svg" width="91" height="91" viewBox="0 0 91 91">
  <g id="web_design" data-name="web design" transform="translate(-324 -351)">
    <rect id="Rectangle_1144" data-name="Rectangle 1144" width="91" height="14" transform="translate(324 408)" fill="#bce0fd"/>
    <path id="Path_246" data-name="Path 246" d="M82.113,0H8.887A8.9,8.9,0,0,0,0,8.887V63.273A8.9,8.9,0,0,0,8.887,72.16H36.613v8.176H34.836a8.889,8.889,0,0,0-8.887,8.887A1.777,1.777,0,0,0,27.727,91H63.273a1.777,1.777,0,0,0,1.777-1.777,8.9,8.9,0,0,0-8.887-8.887H54.387V72.16H82.113A8.9,8.9,0,0,0,91,63.273V8.887A8.9,8.9,0,0,0,82.113,0ZM8.887,3.555H82.113a5.338,5.338,0,0,1,5.332,5.332v45.5H79.27V13.508a1.777,1.777,0,0,0-1.777-1.777H63.273A1.777,1.777,0,0,0,61.5,13.508V54.387H52.6c-.019-1.838-.067-3.651-.143-5.408a114.321,114.321,0,0,0-1.389-14.22,8.888,8.888,0,0,0,2.426-11.592L47.334,12.5a1.777,1.777,0,0,0-3.078,0l-6.163,10.67a8.886,8.886,0,0,0,1.956,11.216,112.824,112.824,0,0,0-1.5,14.592c-.08,1.777-.131,3.59-.15,5.412H29.5V27.727a1.768,1.768,0,0,0-.176-.767c0-.009-.008-.019-.012-.028L22.207,12.713a1.778,1.778,0,0,0-3.18,0L11.918,26.932c0,.009-.007.019-.011.028a1.767,1.767,0,0,0-.176.767v26.66H3.555V8.887A5.338,5.338,0,0,1,8.887,3.555ZM65.051,54.387v-39.1H75.715V18.84H73.938a1.777,1.777,0,0,0,0,3.555h1.777v5.332H73.938a1.777,1.777,0,0,0,0,3.555h1.777v5.332H73.938a1.777,1.777,0,0,0,0,3.555h1.777v7.109H73.938a1.777,1.777,0,0,0,0,3.555h1.777v3.555ZM45.8,36.49a8.9,8.9,0,0,0,1.918-.213c.33,2.114.814,5.855,1.1,11H42.2c.3-5.142.808-8.941,1.159-11.126a8.9,8.9,0,0,0,2.438.34Zm0-3.555a5.339,5.339,0,0,1-4.623-7.993l4.623-8,4.62,8a5.335,5.335,0,0,1-4.62,7.993Zm-3.76,17.9H48.97c.037,1.168.063,2.356.076,3.555H41.955C41.968,53.2,42,52.007,42.035,50.832Zm-19.64,3.555V29.5h3.555V54.387Zm-7.109,0V29.5H18.84V54.387Zm1.1-28.437,4.234-8.467,4.234,8.467Zm44.808,61.5H29.806a5.342,5.342,0,0,1,5.029-3.555H56.164a5.34,5.34,0,0,1,5.027,3.555ZM50.832,80.336H40.168V72.16H50.832Zm31.281-11.73H8.887a5.338,5.338,0,0,1-5.332-5.332V57.941H87.445v5.332A5.338,5.338,0,0,1,82.113,68.605Zm0,0" transform="translate(324 351)" fill="#4640de"/>
  </g>
</svg>
