<svg xmlns="http://www.w3.org/2000/svg" width="91.934" height="91.934" viewBox="0 0 91.934 91.934">
  <g id="Web_Speed_Optimization" data-name="Web Speed Optimization" transform="translate(0)">
    <rect id="Rectangle_1151" data-name="Rectangle 1151" width="64" height="10" rx="5" transform="translate(2 64.934)" fill="#bce0fd"/>
    <path id="Path_325" data-name="Path 325" d="M288,360h3.064v3.064H288Zm0,0" transform="translate(-232.84 -291.05)" fill="#4640de"/>
    <path id="Path_326" data-name="Path 326" d="M47.5,186.225H44.2L43.178,180.1H59.757a7.67,7.67,0,0,0,7.661-7.661V135.661A7.67,7.67,0,0,0,59.757,128H7.661A7.67,7.67,0,0,0,0,135.661v36.773A7.67,7.67,0,0,0,7.661,180.1H24.24l-1.022,6.129h-3.3a3.065,3.065,0,0,0-3.064,3.064v3.064a3.065,3.065,0,0,0,3.064,3.064H47.5a3.065,3.065,0,0,0,3.064-3.064v-3.064a3.065,3.065,0,0,0-3.064-3.064ZM7.661,131.064h52.1a4.6,4.6,0,0,1,4.6,4.6v32.177H50.487a19.919,19.919,0,1,0-33.556,0H3.065V135.661a4.6,4.6,0,0,1,4.6-4.6ZM20.72,167.838a16.776,16.776,0,0,1-3.8-9.193h1.462V155.58H16.932a16.7,16.7,0,0,1,1.491-5.516l1.25.722,1.532-2.654-1.25-.722A17.012,17.012,0,0,1,24,143.366l.721,1.251,2.654-1.532-.722-1.251a16.711,16.711,0,0,1,5.524-1.5v1.454h3.064v-1.454a16.708,16.708,0,0,1,5.524,1.491l-.722,1.25,2.654,1.532.721-1.25a17.012,17.012,0,0,1,4.044,4.044l-1.25.721,1.532,2.654,1.25-.722a16.7,16.7,0,0,1,1.491,5.516H49.031v3.064h1.462a16.779,16.779,0,0,1-3.8,9.193Zm-17.656,4.6V170.9H64.354v1.532a4.6,4.6,0,0,1-4.6,4.6H7.661A4.6,4.6,0,0,1,3.064,172.435ZM27.346,180.1H40.072l1.022,6.129H26.324ZM47.5,192.354H19.919v-3.064H47.5Zm0,0" transform="translate(0 -103.484)" fill="#4640de"/>
    <path id="Path_327" data-name="Path 327" d="M163.175,234.344l-4.609,4.607a4.538,4.538,0,0,0-1.969-.459,4.6,4.6,0,1,0,4.6,4.6,4.538,4.538,0,0,0-.459-1.969l4.609-4.609ZM156.6,244.621a1.532,1.532,0,1,1,1.532-1.532A1.532,1.532,0,0,1,156.6,244.621Zm0,0" transform="translate(-122.888 -189.46)" fill="#4640de"/>
    <path id="Path_328" data-name="Path 328" d="M124.258,216A12.272,12.272,0,0,0,112,228.258h3.064a9.2,9.2,0,0,1,9.193-9.193Zm0,0" transform="translate(-90.549 -174.63)" fill="#4640de"/>
    <path id="Path_329" data-name="Path 329" d="M368,312h3.064v6.129H368Zm0,0" transform="translate(-297.518 -252.243)" fill="#4640de"/>
    <path id="Path_330" data-name="Path 330" d="M400,312h3.064v6.129H400Zm0,0" transform="translate(-323.389 -252.243)" fill="#4640de"/>
    <path id="Path_331" data-name="Path 331" d="M432,312h3.064v6.129H432Zm0,0" transform="translate(-349.26 -252.243)" fill="#4640de"/>
    <path id="Path_332" data-name="Path 332" d="M368,216h3.064v6.129H368Zm0,0" transform="translate(-297.518 -174.63)" fill="#4640de"/>
    <path id="Path_333" data-name="Path 333" d="M400,216h3.064v6.129H400Zm0,0" transform="translate(-323.389 -174.63)" fill="#4640de"/>
    <path id="Path_334" data-name="Path 334" d="M432,216h3.064v6.129H432Zm0,0" transform="translate(-349.26 -174.63)" fill="#4640de"/>
    <path id="Path_335" data-name="Path 335" d="M368,120h3.064v6.129H368Zm0,0" transform="translate(-297.518 -97.017)" fill="#4640de"/>
    <path id="Path_336" data-name="Path 336" d="M400,120h3.064v6.129H400Zm0,0" transform="translate(-323.389 -97.017)" fill="#4640de"/>
    <path id="Path_337" data-name="Path 337" d="M432,120h3.064v6.129H432Zm0,0" transform="translate(-349.26 -97.017)" fill="#4640de"/>
    <path id="Path_338" data-name="Path 338" d="M257.031,15.322a3.065,3.065,0,0,0,3.064-3.064V3.064A3.065,3.065,0,0,0,257.031,0H211.064A3.065,3.065,0,0,0,208,3.064v9.193a3.065,3.065,0,0,0,3.064,3.064H212.6v3.064h-1.532A3.065,3.065,0,0,0,208,21.451h49.031v9.193H238.645v3.064h7.661v3.064h-7.661v3.064h18.387v9.193H238.645V52.1h7.661V55.16h-7.661v3.064h18.387v9.193H238.645v3.064h7.661v3.064a1.532,1.532,0,0,0,1.532,1.532h6.129a1.532,1.532,0,0,0,1.532-1.532V70.482h1.532a3.065,3.065,0,0,0,3.064-3.064V58.225a3.065,3.065,0,0,0-3.064-3.064H255.5V52.1h1.532a3.065,3.065,0,0,0,3.064-3.064V39.838a3.065,3.065,0,0,0-3.064-3.064H255.5V33.709h1.532a3.065,3.065,0,0,0,3.064-3.064V21.451a3.065,3.065,0,0,0-3.064-3.064H255.5V15.322Zm-4.6,56.692H249.37V70.482h3.064Zm0-16.854H249.37V52.1h3.064Zm0-18.387H249.37V33.709h3.064ZM211.064,3.064h45.967v9.193H211.064Zm35.241,12.258v3.064H221.79V15.322Zm-30.645,0h3.064v3.064h-3.064Zm36.773,3.064H249.37V15.322h3.064Zm0,0" transform="translate(-168.162)" fill="#4640de"/>
    <path id="Path_339" data-name="Path 339" d="M240,32h3.064v3.064H240Zm0,0" transform="translate(-194.033 -25.871)" fill="#4640de"/>
    <path id="Path_340" data-name="Path 340" d="M272,32h3.064v3.064H272Zm0,0" transform="translate(-219.904 -25.871)" fill="#4640de"/>
    <path id="Path_341" data-name="Path 341" d="M304,32h3.064v3.064H304Zm0,0" transform="translate(-245.775 -25.871)" fill="#4640de"/>
    <path id="Path_342" data-name="Path 342" d="M368,24h3.064v6.129H368Zm0,0" transform="translate(-297.518 -19.403)" fill="#4640de"/>
    <path id="Path_343" data-name="Path 343" d="M400,24h3.064v6.129H400Zm0,0" transform="translate(-323.389 -19.403)" fill="#4640de"/>
    <path id="Path_344" data-name="Path 344" d="M432,24h3.064v6.129H432Zm0,0" transform="translate(-349.26 -19.403)" fill="#4640de"/>
    <path id="Path_345" data-name="Path 345" d="M296.854,415.661H280v3.064h18.387a1.532,1.532,0,0,0,1.532-1.532V408h-3.064Zm0,0" transform="translate(-226.372 -329.856)" fill="#4640de"/>
    <path id="Path_346" data-name="Path 346" d="M400,408h3.064v3.064H400Zm0,0" transform="translate(-323.389 -329.856)" fill="#4640de"/>
    <path id="Path_347" data-name="Path 347" d="M400,440h3.064v3.064H400Zm0,0" transform="translate(-323.389 -355.727)" fill="#4640de"/>
    <path id="Path_348" data-name="Path 348" d="M43.064,43.064H69.112V40H41.532A1.532,1.532,0,0,0,40,41.532V53.79h3.064Zm0,0" transform="translate(-32.339 -32.339)" fill="#4640de"/>
    <path id="Path_349" data-name="Path 349" d="M48,8h3.064v3.064H48Zm0,0" transform="translate(-38.807 -6.468)" fill="#4640de"/>
    <path id="Path_350" data-name="Path 350" d="M80,8h3.064v3.064H80Zm0,0" transform="translate(-64.678 -6.468)" fill="#4640de"/>
    <path id="Path_351" data-name="Path 351" d="M112,8h3.064v3.064H112Zm0,0" transform="translate(-90.549 -6.468)" fill="#4640de"/>
    <path id="Path_352" data-name="Path 352" d="M144,8h3.064v3.064H144Zm0,0" transform="translate(-116.42 -6.468)" fill="#4640de"/>
  </g>
</svg>
