<svg xmlns="http://www.w3.org/2000/svg" width="92" height="91.834" viewBox="0 0 92 91.834">
  <g id="Web_Development" data-name="Web Development" transform="translate(-666 -343.615)">
    <rect id="Rectangle_1145" data-name="Rectangle 1145" width="91" height="11" transform="translate(667 408)" fill="#bce0fd"/>
    <g id="data" transform="translate(666 343.616)">
      <path id="Path_291" data-name="Path 291" d="M37.222,28.762A3.949,3.949,0,1,0,41.17,32.71a3.953,3.953,0,0,0-3.949-3.948Zm0,5.206a1.257,1.257,0,1,1,1.258-1.258A1.259,1.259,0,0,1,37.222,33.967Zm0,0" transform="translate(-27.299 -23.598)" fill="#4640de"/>
      <path id="Path_292" data-name="Path 292" d="M93.207,28.762a3.949,3.949,0,1,0,3.948,3.948A3.954,3.954,0,0,0,93.207,28.762Zm0,5.206a1.257,1.257,0,1,1,1.258-1.258A1.259,1.259,0,0,1,93.207,33.967Zm0,0" transform="translate(-73.231 -23.598)" fill="#4640de"/>
      <path id="Path_293" data-name="Path 293" d="M149.194,28.762a3.949,3.949,0,1,0,3.949,3.948A3.953,3.953,0,0,0,149.194,28.762Zm0,5.206a1.257,1.257,0,1,1,1.258-1.258A1.259,1.259,0,0,1,149.194,33.967Zm0,0" transform="translate(-119.165 -23.598)" fill="#4640de"/>
      <path id="Path_294" data-name="Path 294" d="M90.486,26.542A1.346,1.346,0,0,0,91.832,25.2l.1-19.276A5.928,5.928,0,0,0,86.012,0H5.922A5.929,5.929,0,0,0,0,5.921v65.1a5.921,5.921,0,0,0,5.922,5.922H32.1V81.77H28.04a4.92,4.92,0,0,0-4.915,4.914v2.907a2.245,2.245,0,0,0,2.242,2.242h6.416a1.346,1.346,0,0,0,0-2.691H25.817V86.684A2.226,2.226,0,0,1,28.04,84.46H63.792a2.226,2.226,0,0,1,2.223,2.223v2.458H40.137a1.346,1.346,0,0,0,0,2.691H66.464a2.245,2.245,0,0,0,2.242-2.242V86.684a4.92,4.92,0,0,0-4.915-4.914H59.729V76.944H85.91a5.857,5.857,0,0,0,.9-.069,5.93,5.93,0,0,0,5.021-5.853V33.539a1.345,1.345,0,1,0-2.691,0V63.228H47.082V18.3H89.141V25.2a1.346,1.346,0,0,0,1.345,1.346ZM2.791,18.3h41.6v44.83H2.791ZM57.039,81.77H34.794V76.945H57.039Zm32.1-15.851v5.1a3.236,3.236,0,0,1-2.9,3.214c-.109.011-.218.016-.33.016H5.922c-.112,0-.222-.006-.33-.016a3.236,3.236,0,0,1-2.9-3.214v-5.1ZM45.737,15.61H2.79V5.921a3.234,3.234,0,0,1,3.231-3.23H85.91a3.234,3.234,0,0,1,3.231,3.231V15.61Zm0,0" fill="#4640de"/>
      <path id="Path_295" data-name="Path 295" d="M40.756,119.5h6.817a1.345,1.345,0,0,0,0-2.691H40.756a1.345,1.345,0,1,0,0,2.691Zm0,0" transform="translate(-32.334 -95.835)" fill="#4640de"/>
      <path id="Path_296" data-name="Path 296" d="M104.7,119.5h3.229a1.345,1.345,0,0,0,0-2.691H104.7a1.345,1.345,0,1,0,0,2.691Zm0,0" transform="translate(-84.797 -95.835)" fill="#4640de"/>
      <path id="Path_297" data-name="Path 297" d="M77.213,143.258H72.728a1.346,1.346,0,0,0,0,2.691h4.485a1.346,1.346,0,1,0,0-2.691Zm0,0" transform="translate(-58.566 -117.536)" fill="#4640de"/>
      <path id="Path_298" data-name="Path 298" d="M195.107,170.656h-4.485a1.345,1.345,0,0,0,0,2.691h4.485a1.345,1.345,0,1,0,0-2.691Zm0,0" transform="translate(-155.291 -140.014)" fill="#4640de"/>
      <path id="Path_299" data-name="Path 299" d="M119.34,144.6a1.346,1.346,0,0,0,1.345,1.345h10.764a1.346,1.346,0,1,0,0-2.691H120.685A1.346,1.346,0,0,0,119.34,144.6Zm0,0" transform="translate(-97.911 -117.536)" fill="#4640de"/>
      <path id="Path_300" data-name="Path 300" d="M95.359,172a1.346,1.346,0,0,0,1.346,1.345h2.332a1.345,1.345,0,1,0,0-2.691H96.705A1.346,1.346,0,0,0,95.359,172Zm0,0" transform="translate(-78.237 -140.014)" fill="#4640de"/>
      <path id="Path_301" data-name="Path 301" d="M138.132,173.347a1.345,1.345,0,1,0,0-2.691h-6.458a1.345,1.345,0,1,0,0,2.691Zm0,0" transform="translate(-106.926 -140.015)" fill="#4640de"/>
      <path id="Path_302" data-name="Path 302" d="M48.918,269.123a1.345,1.345,0,0,0-1.345-1.345H40.756a1.345,1.345,0,1,0,0,2.691h6.817A1.346,1.346,0,0,0,48.918,269.123Zm0,0" transform="translate(-32.334 -219.697)" fill="#4640de"/>
      <path id="Path_303" data-name="Path 303" d="M104.7,267.777a1.345,1.345,0,1,0,0,2.691h3.229a1.345,1.345,0,0,0,0-2.691Zm0,0" transform="translate(-84.797 -219.696)" fill="#4640de"/>
      <path id="Path_304" data-name="Path 304" d="M78.559,295.572a1.346,1.346,0,0,0-1.346-1.345H72.728a1.346,1.346,0,0,0,0,2.691h4.485A1.346,1.346,0,0,0,78.559,295.572Zm0,0" transform="translate(-58.565 -241.397)" fill="#4640de"/>
      <path id="Path_305" data-name="Path 305" d="M99.038,321.625H96.706a1.345,1.345,0,1,0,0,2.691h2.332a1.345,1.345,0,0,0,0-2.691Zm0,0" transform="translate(-78.237 -263.876)" fill="#4640de"/>
      <path id="Path_306" data-name="Path 306" d="M195.107,321.625h-4.485a1.345,1.345,0,0,0,0,2.691h4.485a1.345,1.345,0,1,0,0-2.691Zm0,0" transform="translate(-155.291 -263.876)" fill="#4640de"/>
      <path id="Path_307" data-name="Path 307" d="M132.794,295.572a1.346,1.346,0,0,0-1.346-1.345H120.685a1.346,1.346,0,0,0,0,2.691h10.764A1.346,1.346,0,0,0,132.794,295.572Zm0,0" transform="translate(-97.911 -241.397)" fill="#4640de"/>
      <path id="Path_308" data-name="Path 308" d="M138.132,321.625h-6.458a1.345,1.345,0,1,0,0,2.691h6.458a1.345,1.345,0,1,0,0-2.691Zm0,0" transform="translate(-106.926 -263.876)" fill="#4640de"/>
      <path id="Path_309" data-name="Path 309" d="M40.756,207.683h3.767a1.345,1.345,0,1,0,0-2.691H40.756a1.345,1.345,0,1,0,0,2.691Zm0,0" transform="translate(-32.333 -168.185)" fill="#4640de"/>
      <path id="Path_310" data-name="Path 310" d="M97.879,206.337a1.345,1.345,0,0,0-1.345-1.345H82.72a1.345,1.345,0,1,0,0,2.691H96.533A1.345,1.345,0,0,0,97.879,206.337Zm0,0" transform="translate(-66.763 -168.185)" fill="#4640de"/>
      <path id="Path_311" data-name="Path 311" d="M87.17,232.787a1.346,1.346,0,0,0-1.346-1.345h-13.1a1.346,1.346,0,0,0,0,2.691h13.1A1.346,1.346,0,0,0,87.17,232.787Zm0,0" transform="translate(-58.565 -189.885)" fill="#4640de"/>
      <path id="Path_312" data-name="Path 312" d="M166.643,234.133h2.511a1.346,1.346,0,1,0,0-2.691h-2.511a1.346,1.346,0,1,0,0,2.691Zm0,0" transform="translate(-135.616 -189.885)" fill="#4640de"/>
      <path id="Path_313" data-name="Path 313" d="M297.523,289.652h-8.61a1.345,1.345,0,1,0,0,2.691h8.61a1.345,1.345,0,1,0,0-2.691Zm0,0" transform="translate(-235.932 -237.644)" fill="#4640de"/>
      <path id="Path_314" data-name="Path 314" d="M380.887,289.652H363.845a1.345,1.345,0,1,0,0,2.691h17.042a1.345,1.345,0,1,0,0-2.691Zm0,0" transform="translate(-297.41 -237.644)" fill="#4640de"/>
      <path id="Path_315" data-name="Path 315" d="M297.523,318.625h-8.61a1.346,1.346,0,1,0,0,2.691h8.61a1.346,1.346,0,1,0,0-2.691Zm0,0" transform="translate(-235.932 -261.414)" fill="#4640de"/>
      <path id="Path_316" data-name="Path 316" d="M380.887,318.625H363.845a1.346,1.346,0,0,0,0,2.691h17.042a1.346,1.346,0,1,0,0-2.691Zm0,0" transform="translate(-297.41 -261.414)" fill="#4640de"/>
      <path id="Path_317" data-name="Path 317" d="M320.607,120.286a3.48,3.48,0,0,0-3.476-3.477H290.813a3.481,3.481,0,0,0-3.477,3.477v18.222h0V141.7a3.481,3.481,0,0,0,3.477,3.477h26.318a3.48,3.48,0,0,0,3.476-3.477ZM317.916,141.7a.786.786,0,0,1-.786.786H290.813a.786.786,0,0,1-.786-.786v-2.63l9.855-9.85,6.8,7.665A1.345,1.345,0,1,0,308.7,135.1l-.617-.7,3.041-3.04,6.8,7.659Zm0-6.731-5.178-5.836a2.13,2.13,0,0,0-3.1-.093l-3.348,3.346-4.79-5.4a2.131,2.131,0,0,0-3.1-.093l-8.373,8.369V120.285a.787.787,0,0,1,.786-.786h26.318a.787.787,0,0,1,.786.786Zm0,0" transform="translate(-235.743 -95.835)" fill="#4640de"/>
    </g>
  </g>
</svg>
